/* XPM */
static char *_1483b8098ba4b17e052a403d2897684QthGWkmUJ4uucHb5[] = {
/* columns rows colors chars-per-pixel */
"64 64 256 2 ",
"   c black",
".  c #1F170B",
"X  c #170F07",
"o  c #4B4B4B",
"O  c white",
"+  c #1B1B1B",
"@  c #131313",
"#  c #0B0B0B",
"$  c #070707",
"%  c #2F371F",
"&  c #232B0F",
"*  c #171F07",
"=  c #0F1700",
"-  c #4F3B2B",
";  c #473323",
":  c #3F2B1B",
">  c #FFB7B7",
",  c #F7ABAB",
"<  c #F3A3A3",
"1  c #EB9797",
"2  c #E78F8F",
"3  c #DF8787",
"4  c #DB7B7B",
"5  c #D37373",
"6  c #CB6B6B",
"7  c #C76363",
"8  c #BF5B5B",
"9  c #BB5757",
"0  c #B34F4F",
"q  c #AF4747",
"w  c #A73F3F",
"e  c #A33B3B",
"r  c #9B3333",
"t  c #972F2F",
"y  c #8F2B2B",
"u  c #8B2323",
"i  c #831F1F",
"p  c #7F1B1B",
"a  c #771717",
"s  c #731313",
"d  c #6B0F0F",
"f  c #670B0B",
"g  c #5F0707",
"h  c #5B0707",
"j  c #530707",
"k  c #4F0000",
"l  c #470000",
"z  c #430000",
"x  c #FFEBDF",
"c  c #FFE3D3",
"v  c #FFDBC7",
"b  c #FFD3BB",
"n  c #FFCFB3",
"m  c #FFC7A7",
"M  c #FFBF9B",
"N  c #FFBB93",
"B  c #FFB383",
"V  c #F7AB7B",
"C  c #EFA373",
"Z  c #E79B6B",
"A  c #DF9363",
"S  c #D78B5B",
"D  c #CF8353",
"F  c #CB7F4F",
"G  c #BF7B4B",
"H  c #B37347",
"J  c #AB6F43",
"K  c #A36B3F",
"L  c #9B633B",
"P  c #8F5F37",
"I  c #875733",
"U  c #7F532F",
"Y  c #774F2B",
"T  c #6B4727",
"R  c #5F4323",
"E  c #533F1F",
"W  c #4B371B",
"Q  c #3F2F17",
"!  c #332B13",
"~  c #2B230F",
"^  c #EFEFEF",
"/  c #E7E7E7",
"(  c #DFDFDF",
")  c gray86",
"_  c LightGray",
"`  c #CBCBCB",
"'  c gray78",
"]  c gray75",
"[  c #B7B7B7",
"{  c gray70",
"}  c gray67",
"|  c #A7A7A7",
" . c #9F9F9F",
".. c #979797",
"X. c #939393",
"o. c #8B8B8B",
"O. c #838383",
"+. c gray50",
"@. c #777777",
"#. c #6F6F6F",
"$. c gray42",
"%. c gray39",
"&. c #5B5B5B",
"*. c gray34",
"=. c gray31",
"-. c gray28",
";. c #434343",
":. c gray23",
">. c #373737",
",. c #2F2F2F",
"<. c #272727",
"1. c #232323",
"2. c #77FF6F",
"3. c #6FEF67",
"4. c #67DF5F",
"5. c #5FCF57",
"6. c #5BBF4F",
"7. c #53AF47",
"8. c #4B9F3F",
"9. c #439337",
"0. c #3F832F",
"q. c #37732B",
"w. c #2F6323",
"e. c #27531B",
"r. c #1F4317",
"t. c #17330F",
"y. c #13230B",
"u. c #0B1707",
"i. c #BFA78F",
"p. c #B79F87",
"a. c #AF977F",
"s. c #A78F77",
"d. c #9F876F",
"f. c #9B7F6B",
"g. c #937B63",
"h. c #8B735B",
"j. c #836B57",
"k. c #7B634F",
"l. c #775F4B",
"z. c #6F5743",
"x. c #67533F",
"c. c #5F4B37",
"v. c #574333",
"b. c #533F2F",
"n. c #9F8363",
"m. c #8F7753",
"M. c #836B4B",
"N. c #775F3F",
"B. c #675333",
"V. c #5B472B",
"C. c #4F3B23",
"Z. c #43331B",
"A. c #7B7F63",
"S. c #6F7357",
"D. c #676B4F",
"F. c #5B6347",
"G. c #53573B",
"H. c #474F33",
"J. c #3F472B",
"K. c #373F27",
"L. c #FFFF73",
"P. c #EBDB57",
"I. c #D7BB43",
"U. c #C39B2F",
"Y. c #AF7B1F",
"T. c #9B5B13",
"R. c #874307",
"E. c #732B00",
"W. c white",
"Q. c #FFDBDB",
"!. c #FFBBBB",
"~. c #FF9B9B",
"^. c #FF7B7B",
"/. c #FF5F5F",
"(. c #FF3F3F",
"). c #FF1F1F",
"_. c red",
"`. c #EF0000",
"'. c #E30000",
"]. c #D70000",
"[. c #CB0000",
"{. c #BF0000",
"}. c #B30000",
"|. c #A70000",
" X c #9B0000",
".X c #8B0000",
"XX c #7F0000",
"oX c #730000",
"OX c #670000",
"+X c #5B0000",
"@X c #4F0000",
"#X c #430000",
"$X c #E7E7FF",
"%X c #C7C7FF",
"&X c #ABABFF",
"*X c #8F8FFF",
"=X c #7373FF",
"-X c #5353FF",
";X c #3737FF",
":X c #1B1BFF",
">X c blue",
",X c #0000E3",
"<X c #0000CB",
"1X c #0000B3",
"2X c #00009B",
"3X c #000083",
"4X c #00006B",
"5X c #000053",
"6X c white",
"7X c #FFEBDB",
"8X c #FFD7BB",
"9X c #FFC79B",
"0X c #FFB37B",
"qX c #FFA35B",
"wX c #FF8F3B",
"eX c #FF7F1B",
"rX c #F37317",
"tX c #EB6F0F",
"yX c #DF670F",
"uX c #D75F0B",
"iX c #CB5707",
"pX c #C34F00",
"aX c #B74700",
"sX c #AF4300",
"dX c white",
"fX c #FFFFD7",
"gX c #FFFFB3",
"hX c #FFFF8F",
"jX c #FFFF6B",
"kX c #FFFF47",
"lX c #FFFF23",
"zX c yellow",
"xX c #A73F00",
"cX c #9F3700",
"vX c #932F00",
"bX c #872300",
"nX c #4F3B27",
"mX c #432F1B",
"MX c #372313",
"NX c #2F1B0B",
"BX c #000053",
"VX c #000047",
"CX c #00003B",
"ZX c #00002F",
"AX c #000023",
"SX c #000017",
"DX c #00000B",
"FX c cyan",
"GX c #FF9F43",
"HX c #FFE74B",
"JX c #FF7BFF",
"KX c magenta",
"LX c #CF00CF",
"PX c #9F009B",
"IX c #6F006B",
"UX c #A76B6B",
/* pixels */
"R D G G D S C C C C C C C C C S S D G G G D C C A S D D S S A P T A A A A C A A S S S D S S A S D G G G D S S A C A A A A S D R ",
"E G P P L G A C C A S S S D K L I I U U I G S S H K L K H F D P T S H F F F F H L P I I L H K P U U U I L K H F D D D F H L P T ",
"W G L H G S C C A S F F H L P I U U U U L S C S H K K H G F F P R D L H F F H L I U U I L K L I U U U P L K H F F F F H L L L U ",
"W S S S S A S S F G H K L P I U U U U I G A A D H K K H H F H Y E G P L H K L I U Y U P L L L P U U U L K H H H G G H L L K F L ",
"E C C A S S F H K L P P I U U I I U I H S C A D G H H H H H L R W G P L K L I U Y U P L L L L L I U I L H F F H H H K L H F S K ",
"T B A S F F H L P I I I U U I P P P L D A A S D F F F H K L U E Q G L L L P U U U L H H L L K L P I P K F F F F H H H G S A S P ",
"T C S F H K L P I I U U U I P L L K D S A S S D D F H K P U T E Q G L L L P U I K F F H L K K L P I L K F F F F H H F S A S G T ",
"T C F H L P I I I U U U I P L H K G S A S S D D F F L I Y T T E W G L K L L P L G F G K L K L L P P L K H F F H G F S A S G L T ",
"T A H L P I I I U U U U P L H F F D A A D F F F G K I Y T T Y E W G L H H H H H H H K L L L L L P P P L H H H F F S C A F K P T ",
"T S L P I I I I U U U I L H F D S C C S F H H K L P U T T T Y E W G K F D F H K L L P P P P P P P I P K H K H F S A C S H L P T ",
"R D P I U U U U U U I L H F S A C C A F H K L P U Y T T T T Y E W D G F F H L P I U I I P P P P I I L H H K H D D S S G L L P T ",
"E G U U U U U U U P L H F D A qXC A F H L L I U Y T R T T Y Y R E S H H K P I U U I P L L L P I I P K H H H F F F D S H L L L Y ",
"W G U Y U U U I P K H F D S A qXA F H L P I U T R E R T Y U I T R S K L P I U I P L K H K L I U I L H F F F D F K G D G L L L T ",
"W G Y Y U I L L H F S A S A C A D K P I I U Y R E E T Y U L H P R S L P I I P L K H H H L P I I L H F F D D D F K G D H L L L Y ",
"W G Y U P K H F S A A A A A A D L P I U U U T E E R T U L F D P R D P I I P L H F F H L P I I L H F F D D D F H G D D K L L L Y ",
"W G I L K F D S A A A S A C S K P I U U U Y T E R T U P H D D I E G I I P L H F F H L I I P L H F D D D S D G K G S G L L L L Y ",
"E D L K H F S A S F F F A A D L I I U U Y T R R T U I K F D H T W G I P L H F F F K P I P L F D S D D S S F K L G D K L L L K T ",
"R S H H H F S D H L L F A S H P I U U Y T E R T U I L G F H L R W G P L H F F F H L P L K F S S S D F F F K L H G H L L L K L T ",
"R A F H H F D F L I K S A D L P I U Y T E E T U P K H F H L U R W G L H F F F H H K H G D S S S F H K L L P L G K L L H H L P R ",
"R A F H H F F L I L S C S H L I U Y T R E R T I H F F H L U U R W D K F F F H H H F F D S S F H K L I U U L G K P L H F K I U R ",
"T C F F F F G H H S C A G L I U Y T R R R T U L F F H L U U U R E S F F F H H H F F F D D G L P I U U U L H L P P L G H P U U R ",
"T C S S S A S D S A A F L I U Y T T T T T U P H F H L I U I P T R A F F H H G F F F F F F L I U U U U L H L I I P K H L U Y Y R ",
"T C S qXC C S G H F D H P U Y Y T T T T Y I L F F L I U I P K U T S K K H F D D F H G F H P U U P L H G L U U I P K K I T T U R ",
"R A A C C S H P L F F L U Y Y Y Y T Y U U P K H L I U I P L H I R D L K F S S D G H F F K I U P G D D G P U U I L K L Y R T U T ",
"R C C S G P U I K F H P U U U Y Y Y U I L L L L I U I P L K H U E G L G A A S F H H F G K L L H D H L P U U U P L K P T T U L U ",
"T C A H U Y Y P H F K I U U U Y Y Y I L H K L I I P L L K H H T E G K D A S F H K H F F D S D G L I U Y U U I L K L U T Y P H P ",
"Y C G I T T U L F F L I U U Y Y Y U K F F K L P L K K H H K L T W D G S S F K K H F S S S D H L I U U Y U U I L H L U U P H F P ",
"Y C P Y T U I K F G L I U U U U I L G F H L L H H F F F H K P R E S D S F K L H D S S G H L I U U U U U U U I L H H L L H F F Y ",
"R D U Y U I L H F H P U U U I L K H H K L L H H F F F F H L I T E A S S F G G G G G H L I U U U U U U U I I I L F D F F F F K R ",
"E G U U P L K F F K I U I P K F D F K P I L K H K K H F K P I T R C A A A S G H K K L I U U U U U U P L L L L H D S F F D F L R ",
"E G P L L L H F F L I P L H F S S F L I U P L L L K H H L I I T T C A A S H L L L L P I U U U U U P K H H H H G F D F D D F L R ",
"Q T T T T T U P U T T Y P P P P P U T R R R R R T Y I U T R T T E G K I T R R T Y T R R R R R R T Y U U T T Y P P P P L P U T W ",
"! E E E E E R T R E R T T R R R R E W W W W W W E E R E E R T E W U T E W W E E E E W W W W E E E E E E W W E T T T T T T E W ! ",
"E S S S D D S C C A A S S S S S D G G G G G G G G D S S S C C P T C C D G D S S D G G G G D S S D G G G G G S A A A C C A D G R ",
"E S H H L L H S S F H L L L L L P U U Y Y U I L H G D D S S D P T C G L L K H L I U U P L H H L U Y T U P H F F H H F D H P I T ",
"E S H H K H D A D H K L L L L P I U Y Y U P H G D S S D G D F P Y C G K H H K P U U P H F H L I Y T U P H F F H K K F F H L L T ",
"R S H K H F S D F K L L L L P I U U Y U P G G H G S S F G F D P T C F H F H L I U I K F F L I U Y U L H D D F H K K H D F H K Y ",
"E S L L G F F H K K K K L P I U I P L L H H K L H D S S D F F P T C S F G K P I I L H H L P U U I L G D S F H K K H F D D H K T ",
"E G I L H H L L L K K L P P L L H D D G H L K H D A A S F F F P T C F H L L I I L L L P I U U P K F D S D F H K H F D D F K L T ",
"E G U P K L P P L L L L L H S S S S G L L K F S A A S F F F F P T C G L P I I L L L I U U I P K F D D D F G H H G F D D H L L Y ",
"W G U L H L P P L L L K G D S D D H L I L H D A A D G H H F F U T C H P I P L L P U Y U U P L G D D F F F F H H H H D F H L L Y ",
"W G I H H L P I P L G S S S F F H K L I P H D A D F H H H F H Y R C G L L L L P U Y U U P L H F D D F F F F H L L H F F K L L U ",
"W G L G H L I I L G S C S F F F H K L I P K F S D F H F F F H Y T C D H H H L U U U I P L L H D S D F F F H L P P K F G L L K I ",
"W G K F H L P L G S A S F F F H K L P P L K F D S D F F F F F P T C D F H K P I P L L L P L H D S D F H K L P I P H F H L P K P ",
"W S F F H L L G S S S F H H K L P P L K H K H D S S D F F D S K U C H L I U U P L K L P P L H D D F H L P I U I L H H L P L H L ",
"E A F F H H G S S F F H L L L P I I L F H K H S A S D D D A A K T S I Y T T U L K K L P I L H D D H L P I U I L H F H L L K D L ",
"T C D F F S S S F H K L P P P P P L H F H H F A A S D F S A S I E G T E E T U L K L P I I L G D F K L I I I P K F H K L K G S P ",
"T C D S A C S F K L P I P L L L K H F F H F S A A D F G D D H R W G R E E T P L K L P I P K F D F L L P P L K F F H K H D D G T ",
"T C S A C C S H L P I P L K H H F F F H F D S S F H K G G L U R W G T R T U P L L P I P L H D D F K L L L K H F G K H F D H P T ",
"T C S S S S F H L P L L K H H F F F H H F D F G G H H G L I I R W G T T Y U I I I I P L H F S S F H H K K K G F F F D D K I I T ",
"T C S F F F F H K L L K K K H F F F H F D S F D S D G L P L L T E G U Y U U I U U I L H F D S S D H K K L K D A C A D H I U P T ",
"Y C F H F F F F H K L L L L H D D F D S A A S D D H L L L H H U E G U U U U U U U P K F F D S D F H L L L G S C C S H P U I I T ",
"T C H H F F F H K L L L L L H S S S A C A S H L L P P K H F F U E G Y U U U U U I L H F D D D F H L L L H D S A A F L U U I I R ",
"T S H F F F H L L L L L L K F A A A C S G L I U I L L H F F H T W G Y U U U U I L K F F D D F H K L L G D G H G F H L I I I I R ",
"R S H H H H K L L L K H H F S A A A S H I I I P L L K F F F K T W G Y U U I P L K H F D D F H K K K G D H P P L H H H L P I U R ",
"R S L L K H H H H G F D S S S S S G L I U P L L K K H F F H L R W G Y U I L K H F F D D F F H H G D D H P U I L L H F H L I U E ",
"R D L L H F F D D S A A S D S S G L I I P L K K H H F F F K L R W G Y U L H F S S S D D F F F G D D H P U I P L L K G F K I U E ",
"E G L H D S D D D S A S G G S S H L L L L H H H H H F F F K P R W G U P K F A A A S D D D F G D D H I U U P L L L L H H L U Y E ",
"W G K F A S F F F S D H L H D G H H K K H F H H K K F F H L I R W G I L G S A qXA S D D F H G G K I U U I L L K L L K H L U Y R ",
"W G H D S F G H F F H L L G H K F F F F F F H L P L H H K P I R W G L K F A A A S S D F F G G L I U U I P L K L L P L H L I I Y ",
"E D F D F F H F F H L U L D H H F D F F F H L P I L K K L I U E Q G L H S A A S D F F F D D H I U U I P L L L L I P K G H K H P ",
"E S F F F F F S D K U U H S D F F F F H K L P I P L K L L I U R Q G L F A A A D H H F F S S L U U U P L K L L I I L H F F F F P ",
"R C F F G F D S F L U P D S F F F H K L P I I I L K H K L P P T E D H D A A D H K H H F S G I U U I L K K L I I L K G F F F F U ",
"T P P P P P P P U T R U L P I U Y T T R R R R R T P P P U Y U T E P P P P P U Y T Y U P P T R R R T T T T T R T Y I P P P P U T "
};
